<?xml version="1.0" encoding="UTF-8" standalone="no"?>
<!-- Created with Inkscape (http://www.inkscape.org/) -->

<svg
   width="1000"
   height="700"
   viewBox="0 0 264.58333 185.20834"
   version="1.1"
   id="svg1"
   xml:space="preserve"
   inkscape:version="1.4.3 (0d15f75042, 2025-12-25)"
   sodipodi:docname="actions_poster.svg"
   xmlns:inkscape="http://www.inkscape.org/namespaces/inkscape"
   xmlns:sodipodi="http://sodipodi.sourceforge.net/DTD/sodipodi-0.dtd"
   xmlns:xlink="http://www.w3.org/1999/xlink"
   xmlns="http://www.w3.org/2000/svg"
   xmlns:svg="http://www.w3.org/2000/svg"><sodipodi:namedview
     id="namedview1"
     pagecolor="#505050"
     bordercolor="#eeeeee"
     borderopacity="1"
     inkscape:showpageshadow="0"
     inkscape:pageopacity="0"
     inkscape:pagecheckerboard="0"
     inkscape:deskcolor="#505050"
     inkscape:document-units="mm"
     inkscape:zoom="1.0333895"
     inkscape:cx="392.88187"
     inkscape:cy="342.56203"
     inkscape:window-width="2560"
     inkscape:window-height="1371"
     inkscape:window-x="0"
     inkscape:window-y="0"
     inkscape:window-maximized="1"
     inkscape:current-layer="layer1" /><defs
     id="defs1"><linearGradient
       id="linearGradient4"
       inkscape:collect="always"><stop
         style="stop-color:#9768ff;stop-opacity:1;"
         offset="0"
         id="stop4" /><stop
         style="stop-color:#9768ff;stop-opacity:0;"
         offset="0.54906052"
         id="stop5" /></linearGradient><linearGradient
       inkscape:collect="always"
       xlink:href="#linearGradient4"
       id="linearGradient5"
       x1="11.201849"
       y1="45.1241"
       x2="90.576852"
       y2="45.1241"
       gradientUnits="userSpaceOnUse"
       gradientTransform="translate(-96.332043,-85.282136)" /><linearGradient
       inkscape:collect="always"
       xlink:href="#linearGradient4"
       id="linearGradient6"
       gradientUnits="userSpaceOnUse"
       gradientTransform="translate(-142.01256,-77.013186)"
       x1="11.201849"
       y1="45.1241"
       x2="90.576852"
       y2="45.1241" /><linearGradient
       inkscape:collect="always"
       xlink:href="#linearGradient4"
       id="linearGradient7"
       gradientUnits="userSpaceOnUse"
       gradientTransform="translate(-191.53567,-68.90169)"
       x1="11.201849"
       y1="45.1241"
       x2="90.576852"
       y2="45.1241" /><linearGradient
       inkscape:collect="always"
       xlink:href="#linearGradient4"
       id="linearGradient8"
       gradientUnits="userSpaceOnUse"
       gradientTransform="translate(-239.13863,-60.647854)"
       x1="11.201849"
       y1="45.1241"
       x2="90.576852"
       y2="45.1241" /><linearGradient
       inkscape:collect="always"
       xlink:href="#linearGradient4"
       id="linearGradient9"
       gradientUnits="userSpaceOnUse"
       gradientTransform="matrix(0.71268837,0,0,0.71268837,76.454883,176.71917)"
       x1="11.201849"
       y1="45.1241"
       x2="90.576852"
       y2="45.1241" /><linearGradient
       inkscape:collect="always"
       xlink:href="#linearGradient4"
       id="linearGradient11"
       gradientUnits="userSpaceOnUse"
       gradientTransform="matrix(0.71268837,0,0,0.71268837,38.534649,175.23453)"
       x1="11.201849"
       y1="45.1241"
       x2="90.576852"
       y2="45.1241" /><linearGradient
       inkscape:collect="always"
       xlink:href="#linearGradient4"
       id="linearGradient12"
       gradientUnits="userSpaceOnUse"
       gradientTransform="matrix(0.71268837,0,0,0.71268837,2.8162562,176.58996)"
       x1="11.201849"
       y1="45.1241"
       x2="90.576852"
       y2="45.1241" /></defs><g
     inkscape:label="Layer 1"
     inkscape:groupmode="layer"
     id="layer1"><circle
       style="display:none;fill:none;fill-opacity:1;stroke:url(#linearGradient5);stroke-width:13.2292;stroke-linecap:round;stroke-dasharray:none"
       id="path4"
       cx="-45.442688"
       cy="-40.158035"
       r="33.072918"
       transform="rotate(-137.22439)" /><circle
       style="display:none;fill:none;fill-opacity:1;stroke:url(#linearGradient6);stroke-width:13.2292;stroke-linecap:round;stroke-dasharray:none"
       id="circle5"
       cx="-91.123207"
       cy="-31.889086"
       r="33.072918"
       transform="rotate(-137.22439)" /><circle
       style="display:none;fill:none;fill-opacity:1;stroke:url(#linearGradient7);stroke-width:13.2292;stroke-linecap:round;stroke-dasharray:none"
       id="circle6"
       cx="-140.64632"
       cy="-23.77759"
       r="33.072918"
       transform="rotate(-137.22439)" /><circle
       style="display:none;fill:none;fill-opacity:1;stroke:url(#linearGradient8);stroke-width:13.2292;stroke-linecap:round;stroke-dasharray:none"
       id="circle7"
       cx="-188.24928"
       cy="-15.523753"
       r="33.072918"
       transform="rotate(-137.22439)" /><circle
       style="display:none;fill:none;fill-opacity:1;stroke:url(#linearGradient9);stroke-width:9.4283;stroke-linecap:round;stroke-dasharray:none"
       id="circle8"
       cx="112.72311"
       cy="208.8786"
       r="23.570684"
       transform="rotate(-56.299967)" /><circle
       style="display:none;fill:none;fill-opacity:1;stroke:url(#linearGradient11);stroke-width:9.4283;stroke-linecap:round;stroke-dasharray:none"
       id="circle11"
       cx="74.802872"
       cy="207.39397"
       r="23.570684"
       transform="rotate(-56.299967)" /><circle
       style="display:none;fill:none;fill-opacity:1;stroke:url(#linearGradient12);stroke-width:9.4283;stroke-linecap:round;stroke-dasharray:none"
       id="circle12"
       cx="39.08448"
       cy="208.74939"
       r="23.570684"
       transform="rotate(-56.299967)" /><g
       id="g14"><circle
         style="fill:#cccccc;fill-opacity:0.980392;stroke-width:1.02927;stroke-linecap:round;stroke-dasharray:4.11708, 6.17562"
         id="circle1"
         cx="102.15991"
         cy="60.682335"
         r="49.160778" /><g
         style="fill:#7436fe;fill-opacity:1"
         id="g3"
         transform="matrix(0.06855703,0,0,0.06855703,69.542012,92.028542)"><path
           d="m 240,-80 q -33,0 -56.5,-23.5 Q 160,-127 160,-160 v -400 q 0,-33 23.5,-56.5 Q 207,-640 240,-640 h 40 v -80 q 0,-83 58.5,-141.5 Q 397,-920 480,-920 q 83,0 141.5,58.5 Q 680,-803 680,-720 v 80 h 40 q 33,0 56.5,23.5 23.5,23.5 23.5,56.5 v 400 q 0,33 -23.5,56.5 Q 753,-80 720,-80 Z m 0,-80 H 720 V -560 H 240 Z M 536.5,-303.5 Q 560,-327 560,-360 560,-393 536.5,-416.5 513,-440 480,-440 q -33,0 -56.5,23.5 -23.5,23.5 -23.5,56.5 0,33 23.5,56.5 23.5,23.5 56.5,23.5 33,0 56.5,-23.5 z M 360,-640 h 240 v -80 q 0,-50 -35,-85 -35,-35 -85,-35 -50,0 -85,35 -35,35 -35,85 z m -120,480 v -400 z"
           id="path1-8"
           style="fill:#7436fe;fill-opacity:1" /></g></g><g
       id="g13"><circle
         style="fill:#cccccc;fill-opacity:0.980392;stroke-width:0.683514;stroke-linecap:round;stroke-dasharray:2.73406, 4.10109"
         id="path1"
         cx="48.008625"
         cy="137.10863"
         r="32.646553" /><g
         style="fill:#bb9bff;fill-opacity:1"
         id="g2"
         transform="matrix(0.04199069,0,0,0.04199069,26.965674,157.65544)"><path
           d="m 760,-120 q -39,0 -70,-22.5 Q 659,-165 647,-200 H 440 q -66,0 -113,-47 -47,-47 -47,-113 0,-66 47,-113 47,-47 113,-47 h 80 q 33,0 56.5,-23.5 Q 600,-567 600,-600 600,-633 576.5,-656.5 553,-680 520,-680 H 313 q -13,35 -43.5,57.5 -30.5,22.5 -69.5,22.5 -50,0 -85,-35 -35,-35 -35,-85 0,-50 35,-85 35,-35 85,-35 39,0 69.5,22.5 30.5,22.5 43.5,57.5 h 207 q 66,0 113,47 47,47 47,113 0,66 -47,113 -47,47 -113,47 h -80 q -33,0 -56.5,23.5 -23.5,23.5 -23.5,56.5 0,33 23.5,56.5 23.5,23.5 56.5,23.5 h 207 q 13,-35 43.5,-57.5 30.5,-22.5 69.5,-22.5 50,0 85,35 35,35 35,85 0,50 -35,85 -35,35 -85,35 z M 228.5,-691.5 Q 240,-703 240,-720 240,-737 228.5,-748.5 217,-760 200,-760 q -17,0 -28.5,11.5 -11.5,11.5 -11.5,28.5 0,17 11.5,28.5 11.5,11.5 28.5,11.5 17,0 28.5,-11.5 z"
           id="path1-7"
           style="fill:#bb9bff;fill-opacity:1" /></g></g><g
       id="g12"><circle
         style="fill:#cccccc;fill-opacity:0.980392;stroke-width:1.02927;stroke-linecap:round;stroke-dasharray:4.11708, 6.17562"
         id="circle2"
         cx="187.93146"
         cy="123.41078"
         r="49.160778" /><g
         style="fill:#9768ff;fill-opacity:1"
         id="g4"
         transform="matrix(0.06871855,0,0,0.06871855,155.51824,155.19749)"><path
           d="m 136,-144 -92,-90 q -12,-12 -12,-28 0,-16 12,-28 88,-95 203,-142.5 115,-47.5 233,-47.5 118,0 232.5,47.5 Q 827,-385 916,-290 q 12,12 12,28 0,16 -12,28 l -92,90 q -11,11 -25.5,12 -14.5,1 -26.5,-8 l -116,-88 q -8,-6 -12,-14 -4,-8 -4,-18 v -114 q -38,-12 -78,-19 -40,-7 -82,-7 -42,0 -82,7 -40,7 -78,19 v 114 q 0,10 -4,18 -4,8 -12,14 l -116,88 q -12,9 -26.5,8 -14.5,-1 -25.5,-12 z m 104,-202 q -29,15 -56,34.5 -27,19.5 -56,43.5 l 40,40 72,-56 z m 480,2 v 60 l 72,56 40,-38 q -29,-26 -56,-45 -27,-19 -56,-33 z m -480,-2 z m 480,2 z M 440,-680 v -200 h 80 v 200 z m 264,114 -56,-58 142,-142 56,58 z m -448,0 -142,-142 56,-58 142,142 z"
           id="path1-4"
           style="fill:#9768ff;fill-opacity:1" /></g></g></g></svg>
